<?xml version="1.0" encoding="UTF-8" standalone="no"?>
<svg
   xmlns:dc="http://purl.org/dc/elements/1.1/"
   xmlns:cc="http://creativecommons.org/ns#"
   xmlns:rdf="http://www.w3.org/1999/02/22-rdf-syntax-ns#"
   xmlns:svg="http://www.w3.org/2000/svg"
   xmlns="http://www.w3.org/2000/svg"
   xmlns:sodipodi="http://sodipodi.sourceforge.net/DTD/sodipodi-0.dtd"
   xmlns:inkscape="http://www.inkscape.org/namespaces/inkscape"
   version="1.1"
   width="12.314536"
   height="6.6952929"
   viewBox="0 0 12.314536 6.6952928"
   id="svg4605"
   sodipodi:docname="ocean.svg"
   inkscape:version="0.92.2 5c3e80d, 2017-08-06">
  <metadata
     id="metadata4611">
    <rdf:RDF>
      <cc:Work
         rdf:about="">
        <dc:format>image/svg+xml</dc:format>
        <dc:type
           rdf:resource="http://purl.org/dc/dcmitype/StillImage" />
        <dc:title />
      </cc:Work>
    </rdf:RDF>
  </metadata>
  <defs
     id="defs4609" />
  <sodipodi:namedview
     pagecolor="#ffffff"
     bordercolor="#666666"
     borderopacity="1"
     objecttolerance="10"
     gridtolerance="10"
     guidetolerance="10"
     inkscape:pageopacity="0"
     inkscape:pageshadow="2"
     inkscape:window-width="1920"
     inkscape:window-height="1080"
     id="namedview4607"
     showgrid="false"
     inkscape:zoom="34.1875"
     inkscape:cx="3.0191756"
     inkscape:cy="-5.613019"
     inkscape:window-x="0"
     inkscape:window-y="0"
     inkscape:window-maximized="0"
     inkscape:current-layer="svg4605" />
  <g
     id="g4568"
     style="fill:#000000;fill-opacity:1;stroke-linejoin:miter"
     transform="matrix(0.01646383,0,0,0.01646383,-7.0136483,-12.639034)" />
  <g
     id="g4570"
     style="fill:#000000;fill-opacity:1;stroke-linejoin:miter"
     transform="matrix(0.01646383,0,0,0.01646383,-7.0136483,-12.639034)" />
  <g
     id="g4572"
     style="fill:#000000;fill-opacity:1;stroke-linejoin:miter"
     transform="matrix(0.01646383,0,0,0.01646383,-7.0136483,-12.639034)" />
  <g
     id="g4582"
     style="fill:#000000;fill-opacity:1;stroke-linejoin:miter"
     transform="matrix(0.01646383,0,0,0.01646383,-7.0136483,-12.639034)" />
  <g
     id="g4584"
     style="fill:#000000;fill-opacity:1;stroke-linejoin:miter"
     transform="matrix(0.01646383,0,0,0.01646383,-7.0136483,-12.639034)" />
  <g
     id="g4586"
     style="fill:#000000;fill-opacity:1;stroke-linejoin:miter"
     transform="matrix(0.01646383,0,0,0.01646383,-7.0136483,-12.639034)" />
  <g
     id="g4588"
     style="fill:#000000;fill-opacity:1;stroke-linejoin:miter"
     transform="matrix(0.01646383,0,0,0.01646383,-7.0136483,-12.639034)" />
  <g
     id="g4602"
     transform="matrix(0.01646383,0,0,0.01646383,-7.0136483,-11.579557)">
    <g
       id="g4592"
       style="fill:#000000;fill-opacity:1;stroke-linejoin:miter">
      <path
         inkscape:connector-curvature="0"
         id="path4590"
         d="m 654.21094,959.3334 q -19.51209,0 -29.0456,19.5565 -3.81561,7.89074 -5.64264,20.537 l -2.75946,37.7507 q -1.94184,9.5232 -7.22979,16.0703 -5.87519,6.9988 -14.54385,9.9168 -7.36906,2.8324 -23.2489,3.2472 -2.17313,0.3766 -4.9793,1.6161 -6.9814,3.3869 -10.34734,9.9422 -5.19891,11.1129 0.81454,21.5089 6.5679,10.1876 18.97776,10.5208 0.0538,0 0.10754,0 90.41047,0 85.9196,-96.6132 h 0.007 l 90.6964,90.6477 q 4.61876,4.4426 11.6291,5.6974 1.73154,0.1958 3.36795,0.1958 8.01569,0 13.74895,-4.6975 l 50.3284,-50.1063 q 24.33605,25.2065 31.0891,28.8305 12.96924,9.0447 26.46155,10.9445 3.21935,0.4336 6.43615,0.4336 13.3784,0 26.714,-7.4996 11.71716,-5.5423 37.2394,-32.6712 26.5566,28.1907 39.09336,33.6253 12.35474,6.5349 24.91194,6.5349 4.9817,0 9.9953,-1.0285 21.8774,-3.2292 53.9393,-39.0716 l 48.9556,48.7278 q 2.2395,2.1485 5.1667,3.6599 5.5897,2.333 10.5334,2.333 11.1638,0 19.0327,-11.8972 5.804,-12.9139 -2.435,-23.8346 l -65.8857,-66.0594 q -4.4191,-4.1052 -9.5671,-5.4061 -3.1147,-0.6869 -5.9848,-0.6869 -6.4858,0 -11.7231,3.5078 l -38.437,37.5193 q -6.4518,5.4119 -13.3831,5.5793 -7.0708,-0.04 -13.6119,-5.4983 l -38.40214,-37.5124 q -5.56616,-3.6301 -12.02806,-3.6301 -2.34035,0 -4.79824,0.4762 -5.72936,1.3164 -9.81606,4.947 l -36.594,36.148 q -6.6704,5.0705 -12.50095,5.0705 -0.0998,0 -0.19945,0 -0.1311,0 -0.2621,0 -6.8009,0 -13.70837,-5.756 l -37.71253,-36.9982 q -5.5165,-3.8675 -12.47326,-3.8675 -1.83334,0 -3.76654,0.2685 -5.94464,0.9236 -11.1032,5.4205 l -49.2879,49.0525 -85.6184,-85.2469 q -14.11556,-12.09316 -27.45363,-12.2001 l -0.6048,-0.006 q -0.006,0 -0.0112,0 z" />
    </g>
    <g
       id="g4596"
       style="fill:#000000;fill-opacity:1;stroke-linejoin:miter">
      <path
         inkscape:connector-curvature="0"
         id="path4594"
         d="m 590.21094,831.3334 q -19.51209,0 -29.0456,19.5565 -3.81561,7.89074 -5.64264,20.537 l -2.75946,37.7507 q -1.94184,9.5232 -7.22979,16.0703 -5.87519,6.9988 -14.54385,9.9168 -7.36906,2.8324 -23.24888,3.24717 -2.17315,0.37658 -4.97932,1.61608 -6.98137,3.38695 -10.34734,9.94225 -5.19891,11.1129 0.81452,21.5089 6.56792,10.18765 18.97778,10.5208 0.0538,0 0.10754,0 90.41047,0 85.9196,-96.6132 h 0.007 l 90.6964,90.6477 q 4.61876,4.44265 11.6291,5.6974 1.73154,0.1958 3.36795,0.1958 8.01569,0 13.74895,-4.6975 l 50.32845,-50.1063 q 24.336,25.2065 31.08905,28.83055 12.9692,9.04465 26.46155,10.94445 3.21935,0.4336 6.43621,0.4336 13.37834,0 26.71394,-7.49964 11.71716,-5.54226 37.2394,-32.67116 26.5566,28.1907 39.09336,33.62527 12.35474,6.53493 24.91198,6.53493 4.98169,0 9.99526,-1.02847 21.8774,-3.22923 53.9393,-39.07163 l 48.9556,48.72776 q 2.2395,2.14854 5.1667,3.65994 5.5897,2.333 10.5334,2.333 11.1638,0 19.0327,-11.89723 5.804,-12.91382 -2.435,-23.83457 l -65.8857,-66.05935 q -4.4191,-4.10525 -9.5671,-5.40615 -3.1147,-0.6869 -5.9848,-0.6869 -6.4858,0 -11.7231,3.50784 l -38.43705,37.51926 q -6.45175,5.4119 -13.38305,5.57925 -7.0708,-0.0403 -13.61194,-5.49829 l -38.4021,-37.51233 q -5.56616,-3.63013 -12.02806,-3.63013 -2.34035,0 -4.79824,0.4762 -5.72936,1.3164 -9.81606,4.947 l -36.594,36.148 q -6.6704,5.0705 -12.50095,5.0705 -0.0998,0 -0.19945,-10e-4 -0.1311,0.002 -0.2621,0.002 -6.8009,0 -13.70837,-5.75596 L 780.5299,877.9121 q -5.5165,-3.86754 -12.4733,-3.86754 -1.8333,0 -3.7665,0.26854 -5.94464,0.9236 -11.1032,5.42054 L 703.899,928.78613 618.2806,843.5392 q -14.11556,-12.09316 -27.45363,-12.2001 l -0.6048,-0.006 q -0.006,0 -0.0112,0 z" />
    </g>
    <g
       id="g4600"
       style="fill:#000000;fill-opacity:1;stroke-linejoin:miter">
      <path
         inkscape:connector-curvature="0"
         id="path4598"
         d="m 526.21094,703.3334 q -19.51209,0 -29.0456,19.5565 -3.81561,7.89074 -5.64264,20.537 l -2.75946,37.7507 q -1.94184,9.5232 -7.22979,16.0703 -5.87519,6.9988 -14.54383,9.9168 -7.36908,2.8324 -23.2489,3.24717 -2.17315,0.37658 -4.97932,1.61608 -6.98137,3.38695 -10.34734,9.94225 -5.19891,11.1129 0.81452,21.5089 6.56792,10.18765 18.97778,10.5208 0.0538,0 0.10754,0 90.41047,0 85.9196,-96.6132 h 0.007 l 90.6964,90.6477 q 4.61876,4.44265 11.6291,5.6974 1.73154,0.1958 3.36795,0.1958 8.01569,0 13.74895,-4.6975 l 50.32845,-50.1063 q 24.336,25.2065 31.08905,28.83055 12.9692,9.04465 26.46155,10.94445 3.21935,0.4336 6.43621,0.4336 13.37844,0 26.71394,-7.49964 11.71716,-5.54226 37.2393,-32.67116 26.5567,28.1907 39.09346,33.62527 12.35474,6.53493 24.91198,6.53493 4.98169,0 9.99526,-1.02847 21.8774,-3.22923 53.9393,-39.07163 l 48.9556,48.72776 q 2.2395,2.14854 5.1667,3.65994 5.5898,2.333 10.5334,2.333 11.1638,0 19.0327,-11.89723 5.804,-12.91382 -2.435,-23.83457 l -65.8857,-66.05935 q -4.4191,-4.10525 -9.56715,-5.40615 -3.11465,-0.6869 -5.98475,-0.6869 -6.48583,0 -11.72314,3.50784 l -38.43701,37.51926 q -6.45175,5.4119 -13.38305,5.57925 -7.0708,-0.0403 -13.61194,-5.49829 l -38.4021,-37.51233 q -5.56616,-3.63013 -12.02806,-3.63013 -2.3404,0 -4.79824,0.4762 -5.72943,1.3164 -9.81606,4.947 l -36.594,36.148 q -6.67044,5.0705 -12.5009,5.0705 -0.0999,0 -0.1996,-10e-4 -0.13095,0.002 -0.262,0.002 -6.8009,0 -13.70837,-5.75596 L 716.5299,749.9121 q -5.5165,-3.86754 -12.4733,-3.86754 -1.8333,0 -3.7665,0.26854 -5.94464,0.9236 -11.1032,5.42054 L 639.899,800.78613 554.2806,715.5392 q -14.11556,-12.09316 -27.45363,-12.2001 l -0.6048,-0.006 q -0.006,0 -0.0112,0 z" />
    </g>
  </g>
</svg>
