<?xml version="1.0" encoding="utf-8"?>
<svg xmlns="http://www.w3.org/2000/svg" xmlns:xlink="http://www.w3.org/1999/xlink" version= "1.1" width="1536px" height="2048px" viewBox="0 0 1536 2048">
<g id="layer1">
<g style="fill:rgb(0,0,0); fill-opacity:1.0; stroke-linejoin: miter">
</g>
<g style="fill:rgb(0,0,0); fill-opacity:1.0; stroke-linejoin: miter">
<path d="M931.36414,1087.9917Q939.90625,1089.6205,929.34875,1092.2059Q927.94604,1088.6217,931.3351,1088.0011 M1137.6627,1095.6127Q1120.4225,1102.333,1137.3713,1096.0963 M506.9901,590.17316Q428.67453,591.6186,385.1292,641.2565Q372.72028,656.60944,365.30234,670.9584Q345.48837,713.82355,341.576,717.6428Q337.62488,730.2655,335.13977,745.30206Q334.43353,745.9295,332.76727,745.5839Q327.5133,777.8928,327.1686,810.3859Q327.78793,842.88153,333.4688,875.1557Q360.2333,949.1798,372.9298,965.37213Q408.75473,1022.9059,424.22534,1039.753L461.1612,1081.3079Q472.1354,1092.7998,488.08472,1101.3491Q507.53253,1128.9548,518.5851,1133.4314L503.248,1112.3787Q517.2543,1123.0266,527.3611,1126.4106L524.37646,1116.2273L548.1842,1116.6376L582.19183,1123.7437Q596.3415,1125.8213,614.9052,1119.2188L604.7045,1113.8254Q545.7461,1100.6677,544.39685,1096.2297Q496.4065,1065.7141,500.02084,1059.8873L510.69104,1068.8862L546.2723,1091.3142Q572.455,1103.3037,601.0331,1105.5905L616.8723,1101.887L627.0928,1094.3937L685.8286,1062.1428Q697.749,1055.3163,712.7457,1053.2451Q724.46497,1053.0828,734.87506,1062.7075Q758.4647,1088.048,765.62756,1090.7802Q777.619,1098.2291,790.4219,1100.2572L803.9496,1100.0652Q833.0361,1094.1814,854.4508,1076.5469L893.42224,1038.5052L904.11365,1031.2954Q918.8312,1025.2908,929.681,1025.9935L944.7908,1027.3302Q957.40173,1029.7675,968.9906,1037.4674Q971.3165,1036.36,1007.6249,1074.2262L1020.2434,1081.7102Q1033.0337,1085.665,1048.0935,1080.2428L1061.0332,1074.8673L1106.4552,1046.2506Q1119.7999,1039.9897,1132.6616,1038.5269Q1146.579,1037.2021,1158.637,1045.3121Q1164.3745,1046.7239,1186.9196,1073.1476L1198.1329,1080.9629Q1193.35,1027.8038,1131.7065,1018.9367Q1112.2145,1021.2378,1099.0854,1027.9558L1052.2874,1057.2269Q1043.7067,1062.4268,1029.2592,1063.6354L1020.0123,1058.9658L993.29236,1031.7085L980.32153,1021.33496L951.5132,1005.6118Q932.73816,1001.2803,916.42615,1004.01385Q896.8843,1006.36365,880.115,1019.7421L849.2367,1050.5872Q841.8413,1058.1677,831.80676,1064.2955Q810.6288,1078.2969,793.7286,1077.2511Q775.0737,1071.6525,771.77625,1067.1312Q750.7115,1043.2651,736.0183,1036.0829L712.2875,1030.0872L692.8286,1034.1517L708.9055,1027.8555L733.73096,1031.2297L750.9222,1042.075L776.891,1066.9532L787.30206,1072.4512Q790.3513,1067.3014,785.07776,1047.0272Q776.84,1036.5103,758.8961,1022.2394L731.8119,1008.7206L694.5123,1008.87195Q674.385,1013.244,601.4251,1053.5955L556.43976,1043.4545L545.8542,1037.8403Q538.3342,1032.4543,530.8907,1024.2632L480.3808,968.6195Q471.15247,963.22986,466.85614,971.7528L476.508,1008.06055Q457.48123,986.5174,446.46512,969.3807Q452.7871,998.0482,455.88672,1004.5509Q455.67242,1007.8646,428.55588,967.3539L425.95978,966.7633Q430.7364,981.59326,429.3502,985.60547L410.45288,968.7399Q405.67053,966.5104,387.4053,933.9088Q380.64377,920.04517,375.3482,905.9071L376.77338,899.29626Q364.43494,864.85645,362.88,818.24805L364.27295,807.2936L366.28094,835.25195L371.98752,845.78595L378.89157,848.5766L377.71024,834.8977L380.9601,840.07086Q387.6831,910.8241,431.5514,967.9055Q380.4205,894.62427,383.24573,831.75275L387.7149,820.9873Q386.95306,807.55225,387.92657,794.12415Q390.9261,795.6021,398.97116,743.2066Q385.67657,814.01746,396.2913,860.42804Q412.0569,892.6915,441.8991,915.0995Q414.76706,866.0509,417.02597,800.4899Q421.36725,713.0505,454.15082,686.13116Q460.54285,684.3503,467.48413,685.0571Q501.97977,691.1696,503.15057,692.3992Q512.7812,696.01764,518.1174,699.7186Q525.5923,699.0973,568.7143,712.5755Q571.69574,712.75775,598.0183,725.74005Q584.2676,723.00366,591.84875,727.98944Q630.5443,747.2943,641.9743,756.5042L654.1595,760.36206Q658.96344,761.9742,684.25555,781.651Q741.96826,833.8971,740.6781,843.8373L725.3625,807.1384L732.39575,808.1011L785.875,833.9267L796.8347,840.8459L803.167,839.39343Q857.19617,865.9135,865.4955,875.569Q867.244,875.6637,867.9496,874.8706Q849.29517,844.6004,768.89923,765.40936L735.14417,746.7158Q725.45044,735.99976,670.3982,697.7865Q648.4673,683.68835,623.7601,671.7164L631.1053,671.5815Q671.27405,693.2997,689.7647,707.19867Q733.21594,724.3292,690.35626,695.9749L617.5039,655.7992Q614.19507,654.0148,613.0662,656.17706Q593.3233,646.0798,547.82404,634.7281Q541.3025,632.0589,538.3625,629.996Q509.88922,625.38605,481.16144,629.98676L479.14584,622.3617L485.7199,618.8094Q483.23004,615.8425,489.37445,612.0864Q506.48904,609.19885,521.19855,610.2928Q561.7006,613.3834,623.2366,636.97015Q652.76404,640.022,658.3071,634.0622Q566.95026,587.8111,507.36713,590.1799 M931.62,1027.4155Q917.5471,1027.112,905.7388,1032.166L894.8894,1039.2688L855.93115,1077.3181Q834.593,1094.855,805.8828,1101.4501L790.6933,1101.7395Q777.7243,1100.027,765.67975,1092.5677Q758.1697,1090.0391,734.7862,1064.5826Q723.7306,1054.0919,714.67725,1056.366Q707.5014,1060.2386,705.78516,1070.58Q707.29175,1078.8151,714.05493,1079.636L710.59595,1084.333Q712.27545,1095.4891,716.6843,1106.3157Q735.0216,1140.8346,778.11084,1159.5635L804.98096,1162.3975L831.33716,1157.9185L822.4731,1163.2722Q831.3683,1164.3871,857.4147,1152.3152Q885.8806,1142.6005,935.9723,1090.2769L964.7009,1119.321Q977.599,1129.8846,1018.5679,1140.1874L1052.4766,1138.3667L1075.5017,1131.1702Q1096.3512,1122.2992,1110.418,1111.6453L1128.1582,1099.5784Q1121.627,1102.5035,1125.4512,1097.2987L1137.0466,1092.7114Q1141.9502,1089.2938,1123.6521,1086.3206Q1113.6058,1086.6926,1103.6118,1089.5122Q1108.3514,1080.2578,1117.4948,1075.6609L1120.8013,1067.1066L1127.9056,1062.283Q1127.3268,1053.7805,1115.4084,1049.8663Q1104.5748,1047.253,1097.0652,1053.2878L1062.0323,1076.113L1049.1254,1081.5323Q1034.2129,1086.94,1021.1898,1083.5884L1008.0759,1076.5403L968.3584,1038.9243Q962.6549,1031.879,932.4636,1027.5061"/>
</g>
<g style="fill:rgb(0,0,0); fill-opacity:1.0; stroke-linejoin: miter">
<path d="M978.0728,1232.43Q965.89655,1232.974,956.66583,1237.2845L910.12164,1265.6226Q900.28375,1271.3351,889.3426,1275.395Q878.9996,1279.1866,867.5445,1280.859Q854.83453,1280.521,846.34064,1281.6268L837.3389,1289.5409Q837.11285,1298.5441,852.8497,1306.7836Q883.09796,1318.8807,910.1436,1319.6053L925.6104,1313.4067L925.6202,1317.159L938.2247,1310.4326Q965.3404,1294.7666,975.066,1287.0632L978.0457,1282.011Q981.1058,1281.5448,985.8687,1282.89L991.231,1280.9246Q999.06476,1283.1653,1030.0454,1305.6993Q1040.0337,1317.7693,1052.6746,1326.874Q1024.5464,1292.5436,1021.83014,1278.2157L1024.3906,1278.257L1034.3313,1281.5747L1044.4915,1281.2476Q1051.5142,1270.5792,1046.3132,1261.8738Q1029.7207,1248.7635,1009.0921,1238.9303L998.57306,1235.2402Q988.8143,1232.4906,979.00543,1232.4927 M462.03198,1174.5874Q445.88263,1174.4983,426.55823,1178.9257L382.76025,1203.855Q370.0451,1211.8936,350.67316,1233.6173Q351.864,1233.8585,345.96484,1234.2482L353.73022,1233.8856L364.91333,1230.606L358.50806,1277.9796Q350.67108,1303.5002,347.11987,1308.5623L348.841,1310.9163Q360.583,1306.3203,400.378,1265.3986L407.02203,1246.3608Q430.09467,1231.4054,437.14124,1230.5059L447.9604,1228.206Q459.42462,1226.6008,469.0525,1227.6576Q462.22675,1229.8113,448.25037,1230.5806L438.3247,1232.6019Q427.60712,1239.0093,427.2439,1245.9237Q436.2857,1242.2283,444.52972,1237.1649L454.74457,1235.8263L464.90485,1235.5232L474.76794,1238.347L475.32355,1235.758Q485.1294,1236.9554,494.51685,1241.6815L502.92725,1246.7761L504.2929,1250.5063L522.08453,1263.1487L523.0733,1271.6667L517.4977,1271.6687L511.65125,1273.3306Q489.2707,1257.087,487.0605,1256.5455Q480.4807,1252.955,474.2079,1253.0458Q463.47742,1256.285,463.04736,1267.4501Q476.40973,1267.8317,483.6521,1273.43L560.5515,1324.6211L569.77954,1334.6234L591.8843,1344.2377Q604.1699,1347.8087,622.928,1349.1979Q641.94464,1349.3236,654.3229,1346.8286L697.00073,1330.1257Q710.8178,1322.7732,721.8707,1314.4537Q744.4885,1294.3058,752.4093,1290.2635L756.9013,1295.4912Q756.6201,1296.0006,759.3694,1295.1636L755.02295,1289.5083L760.24854,1289.0927Q758.8884,1283.418,766.29736,1275.8965Q775.92,1275.1798,786.1031,1276.4808L791.36676,1270.8127L781.93634,1264.3552Q761.25525,1257.6978,742.5371,1260.1685L749.8508,1256.8442L759.77625,1255.5111L769.87476,1256.8939Q780.0163,1258.9073,790.6214,1262.6105Q801.65094,1262.978,811.7349,1266.0822L843.3658,1276.7422L853.47394,1279.2117L866.0047,1279.7485L877.50885,1277.6519Q887.3885,1275.309,897.7952,1270.58Q904.0262,1268.0482,926.7037,1254.5424Q949.39825,1238.3136,955.044,1236.6305L965.38873,1232.9127L976.46246,1231.2699L986.5699,1231.6758L998.01764,1233.7736Q1007.88385,1236.3701,1018.3482,1242.0377Q1032.3896,1249.7402,1064.9084,1272.5686Q1074.3364,1277.9569,1085.2024,1281.6295L1095.7622,1284.8866Q1096.5576,1284.8734,1091.2571,1271.2852Q1084.4558,1265.1377,1074.5969,1261.4844Q1043.6741,1237.1079,1026.5071,1228.2052Q1015.4942,1222.0286,1002.8133,1218.4263L990.5235,1215.9985L962.1993,1214.4773L948.8416,1218.9626L936.79694,1225.1812Q913.5799,1241.3607,909.27814,1243.1732L891.00714,1252.8523Q882.67706,1256.6628,873.2752,1259.5127L864.1163,1261.1605Q859.3797,1262.0829,850.1668,1259.2107L853.1065,1257.6484L861.08795,1258.7124Q864.9705,1259.1378,875.46124,1256.0658Q878.9151,1248.1261,868.5328,1241.9337Q861.3658,1242.6099,855.3399,1240.5996Q794.11017,1217.7871,778.15656,1215.5828Q747.09753,1220.1447,734.1564,1220.9292L716.6552,1226.821Q700.89966,1235.2959,691.443,1244.2612L688.43933,1253.1028L695.44836,1257.949L696.1036,1258.1296L706.51843,1256.2463L716.0408,1255.3711L698.83594,1270.091L703.23425,1271.3633L714.0278,1269.7349L698.95154,1286.4025L709.98016,1284.157L710.1924,1284.3422Q709.36084,1292.3976,699.32623,1302.2168Q689.8577,1308.8815,676.02966,1314.3439L666.2617,1314.341Q663.4912,1316.7106,634.31586,1320.0592L620.84753,1319.5693L632.7728,1318.3098L641.6051,1312.172L635.25073,1309.0984L643.1025,1305.457Q669.5454,1301.2539,675.5816,1297.3114Q686.8015,1292.2731,695.4739,1284.9026Q686.0177,1291.4777,676.0083,1296.3845Q670.77704,1300.2656,642.7616,1304.7892L632.11804,1302.9934Q624.1745,1300.3269,613.13403,1297.3593Q603.93506,1292.6599,593.7108,1289.8062Q603.0026,1293.3162,612.3627,1295.0349L623.457,1296.6693Q633.6086,1297.0632,644.0968,1295.2684Q663.9158,1284.3147,669.0592,1267.6886Q648.51117,1275.2631,630.34393,1276.1682Q616.6106,1276.4855,600.4376,1270.3915Q585.54,1263.6995,565.5693,1248.6912Q562.99615,1247.5618,547.2324,1211.7599L538.7733,1203.1151Q529.2942,1195.363,508.74664,1186.4703L490.1631,1181.1976L473.6687,1178.996L479.5719,1175.6985L463.04944,1174.6467"/>
</g>
<g style="fill:rgb(0,0,0); fill-opacity:1.0; stroke-linejoin: miter">
<path d="M512.6132,634.8778L501.29694,636.0643L464.93436,652.5706Q449.4107,663.3828,415.87723,698.32056Q395.28098,726.31146,394.99106,732.0164Q389.03683,758.59985,380.03552,784.3085L377.6703,797.6453L385.07196,807.66974L398.5659,809.4415L408.36316,799.9222Q417.27222,794.76196,428.74326,785.35754L438.61978,783.05585L449.67902,764.51996L454.58948,762.62244Q455.5064,758.1802,456.42343,753.7379L460.0145,749.3367L473.239,726.8152L494.6341,704.9666L492.31665,701.3778Q511.91486,693.4716,520.40405,688.7313Q520.11346,685.9644,506.8499,689.65607L499.336,686.9314Q512.82056,687.80334,515.94196,680.4448L513.30725,668.25806L518.7601,648.7902L512.8556,635.3942 M0.80602074,1116.6311L-4.631304,1118.2115Q-44.345463,1158.081,0.771595,1116.6614 M524.8569,610.60657Q510.15942,609.3978,490.424,617.7182L452.08624,635.4035L406.47052,672.84827L394.94287,685.4297Q386.05197,699.9888,378.31512,709.835L370.84674,727.6256L355.6753,781.0595L352.99246,795.55396L350.1378,798.8645Q348.50455,793.2504,359.26227,756.02295L345.6111,754.713L335.65463,763.8134Q333.8389,764.0087,322.73715,829.4247Q311.25812,862.087,310.22287,871.8014Q312.7364,884.05945,312.26544,896.5617Q311.58334,902.351,299.69427,928.15826L298.8444,938.2359L310.5725,942.7274Q325.16858,935.12415,327.69672,938.58026Q319.4162,951.8424,321.2932,956.4298L333.57275,950.66956Q337.97592,952.64886,329.06598,966.8867Q330.04813,971.01666,340.3362,968.5994L341.99475,981.8406L330.71338,1006.6205L323.66718,1014.01416Q323.94455,1019.18616,304.38214,1049.9313L305.3746,1031.8845L296.48273,1033.9966L324.5614,972.6702L300.61884,1022.589L291.32333,1032.579Q283.9699,1036.2817,266.06622,1055.4265L292.11353,1014.5069L287.1205,972.0716L282.52054,975.4242Q275.00174,997.0755,252.31946,1031.2618Q209.61426,1041.3911,209.61476,1043.3888L192.50136,1044.3982Q180.43071,1040.6536,163.20183,1040.152L145.02324,1042.1205Q136.24403,1049.4474,105.747696,1057.4706L104.79317,1057.6875L106.14496,1052.2096L91.19574,1057.8616L70.56033,1067.5789Q55.769062,1080.9656,12.822884,1106.0276L0.8682556,1116.5762L18.426472,1112.0991L19.841522,1120.9868L-0.68201065,1156.1814L7.110262,1171.3274Q17.320473,1169.3323,30.595486,1171.612L14.625023,1176.482L2.9731483,1183.6573L2.8604565,1188.6207Q4.602167,1185.1792,21.598236,1190.8213L43.97156,1182.2039L43.149616,1171.0874L50.75848,1166.2891L64.87157,1144.3335Q82.035416,1131.6589,124.959045,1114.3591Q121.395996,1118.3467,90.00493,1133.4556L84.35028,1145.7743L92.895584,1142.5586Q103.81886,1133.2434,115.09935,1128.7731L173.59181,1107.356Q185.9942,1098.6042,195.71176,1096.9098L197.96402,1113.5585Q150.55643,1141.1926,144.87228,1139.3307L137.72363,1146.5366L134.74081,1162.1287L135.61545,1162.0933Q157.80276,1156.5524,174.85976,1149.9204Q205.84682,1129.121,247.6912,1114.925L252.05573,1113.766Q263.69272,1117.2925,278.08783,1116.5208L314.74777,1098.0393L329.68365,1076.5853Q345.8827,1051.8467,352.74194,1037.4573L354.89728,1021.7687L388.95267,948.7394Q398.31808,929.0282,397.85675,916.1275L407.38675,904.87805L398.51813,906.193L394.69867,898.38904L384.08273,891.88025L382.59955,866.9861L371.6328,866.2057L367.2819,878.8413Q360.13953,911.8135,356.5728,918.85315L358.76584,892.8766L377.85138,786.9253L397.75568,721.9726Q406.1798,711.21936,413.0665,699.4254Q412.2263,698.6162,451.7763,660.90173L462.34308,652.25916L498.64868,635.6143Q511.30786,629.5742,525.31635,630.3718L537.32495,634.063Q547.14526,643.724,559.07153,650.3074Q556.52423,650.7646,561.78094,636.2392L553.48425,624.0141Q531.38965,611.0125,525.79956,610.9171"/>
</g>
</g>
</svg>